<mxfile host="app.diagrams.net" agent="Mozilla/5.0 (Windows NT 10.0; Win64; x64) AppleWebKit/537.36 (KHTML, like Gecko) Chrome/131.0.0.0 Safari/537.36" version="24.9.1">
  <diagram name="Trang-1" id="eXEy6su_q7XUDZ6I5S_5">
    <mxGraphModel dx="1050" dy="557" grid="1" gridSize="10" guides="1" tooltips="1" connect="1" arrows="1" fold="1" page="1" pageScale="1" pageWidth="827" pageHeight="1169" math="0" shadow="0">
      <root>
        <mxCell id="0" />
        <mxCell id="1" parent="0" />
        <mxCell id="LX-oKBhH1RIqZcYv2t5G-4" style="edgeStyle=orthogonalEdgeStyle;rounded=0;orthogonalLoop=1;jettySize=auto;html=1;" edge="1" parent="1" source="-pku5gJoaItd5ZJ8lcbM-28" target="LX-oKBhH1RIqZcYv2t5G-2">
          <mxGeometry relative="1" as="geometry">
            <Array as="points">
              <mxPoint x="360" y="280" />
              <mxPoint x="360" y="280" />
            </Array>
          </mxGeometry>
        </mxCell>
        <mxCell id="-pku5gJoaItd5ZJ8lcbM-28" value="Nhân viên" style="shape=umlActor;verticalLabelPosition=bottom;verticalAlign=top;html=1;outlineConnect=0;" parent="1" vertex="1">
          <mxGeometry x="120" y="220" width="40" height="120" as="geometry" />
        </mxCell>
        <mxCell id="LX-oKBhH1RIqZcYv2t5G-5" style="edgeStyle=orthogonalEdgeStyle;rounded=0;orthogonalLoop=1;jettySize=auto;html=1;entryX=0.5;entryY=1;entryDx=0;entryDy=0;" edge="1" parent="1" source="-pku5gJoaItd5ZJ8lcbM-29" target="LX-oKBhH1RIqZcYv2t5G-2">
          <mxGeometry relative="1" as="geometry" />
        </mxCell>
        <mxCell id="-pku5gJoaItd5ZJ8lcbM-29" value="Quản trị viên" style="shape=umlActor;verticalLabelPosition=bottom;verticalAlign=top;html=1;outlineConnect=0;" parent="1" vertex="1">
          <mxGeometry x="120" y="400" width="40" height="120" as="geometry" />
        </mxCell>
        <mxCell id="-pku5gJoaItd5ZJ8lcbM-31" value="Khách hàng" style="shape=umlActor;verticalLabelPosition=bottom;verticalAlign=top;html=1;outlineConnect=0;" parent="1" vertex="1">
          <mxGeometry x="120" y="60" width="40" height="100" as="geometry" />
        </mxCell>
        <mxCell id="LX-oKBhH1RIqZcYv2t5G-2" value="Đăng kí tài khoản" style="ellipse;whiteSpace=wrap;html=1;" vertex="1" parent="1">
          <mxGeometry x="420" y="190" width="150" height="130" as="geometry" />
        </mxCell>
        <mxCell id="LX-oKBhH1RIqZcYv2t5G-3" style="edgeStyle=orthogonalEdgeStyle;rounded=0;orthogonalLoop=1;jettySize=auto;html=1;entryX=0.429;entryY=0.042;entryDx=0;entryDy=0;entryPerimeter=0;" edge="1" parent="1" source="-pku5gJoaItd5ZJ8lcbM-31" target="LX-oKBhH1RIqZcYv2t5G-2">
          <mxGeometry relative="1" as="geometry" />
        </mxCell>
      </root>
    </mxGraphModel>
  </diagram>
</mxfile>
